<?xml version="1.0" encoding="iso-8859-1"?>
<!-- Generator: Adobe Illustrator 19.0.0, SVG Export Plug-In . SVG Version: 6.00 Build 0)  -->
<svg version="1.1" id="Layer_1" xmlns="http://www.w3.org/2000/svg" xmlns:xlink="http://www.w3.org/1999/xlink" x="0px" y="0px"
	 viewBox="0 0 512 512" style="enable-background:new 0 0 512 512;" xml:space="preserve">
<g>
	<path style="fill:#EFE7E4;" d="M504.495,70.641H234.116c-4.146,0-7.505,3.359-7.505,7.505v73.932c0,4.146,3.359,7.505,7.505,7.505
		h270.379c4.145,0,7.505-3.359,7.505-7.505V78.146C512,74,508.64,70.641,504.495,70.641z"/>
	<path style="fill:#EFE7E4;" d="M504.495,211.528H234.116c-4.146,0-7.505,3.359-7.505,7.505v73.932c0,4.146,3.359,7.505,7.505,7.505
		h270.379c4.145,0,7.505-3.359,7.505-7.505v-73.932C512,214.887,508.64,211.528,504.495,211.528z"/>
	<path style="fill:#EFE7E4;" d="M504.495,352.415H234.116c-4.146,0-7.505,3.359-7.505,7.505v73.933c0,4.145,3.359,7.505,7.505,7.505
		h270.379c4.145,0,7.505-3.36,7.505-7.505V359.92C512,355.774,508.64,352.415,504.495,352.415z"/>
</g>
<g>
	<path style="fill:#D8D1D0;" d="M226.611,132.065v20.014c0,4.146,3.359,7.505,7.505,7.505h270.379c4.145,0,7.505-3.359,7.505-7.505
		v-20.014H226.611z"/>
	<path style="fill:#D8D1D0;" d="M226.611,272.952v20.014c0,4.146,3.359,7.505,7.505,7.505h270.379c4.145,0,7.505-3.359,7.505-7.505
		v-20.014H226.611z"/>
	<path style="fill:#D8D1D0;" d="M226.611,413.838v20.015c0,4.145,3.359,7.505,7.505,7.505h270.379c4.145,0,7.505-3.36,7.505-7.505
		v-20.015H226.611z"/>
</g>
<path style="fill:#68B9D8;" d="M105.907,236.731c-0.068-0.002-0.137-0.002-0.205,0C48.405,237.515,0,284.477,0,339.282v31.559
	c0,4.146,3.36,7.505,7.505,7.505h196.598c4.146,0,7.505-3.359,7.505-7.505v-31.559C211.609,284.477,163.204,237.515,105.907,236.731
	z"/>
<path style="fill:#3695B2;" d="M105.907,236.731c-0.068-0.002-0.137-0.002-0.205,0c-4.563,0.062-9.069,0.42-13.501,1.05
	c51.199,7.267,92.201,51.061,92.201,101.501v31.559c0,4.146-3.359,7.505-7.505,7.505h27.206c4.146,0,7.505-3.359,7.505-7.505
	v-31.559C211.609,284.477,163.204,237.515,105.907,236.731z"/>
<path style="fill:#F2464F;" d="M138.157,327.501l-13.36-58c-0.802-3.478-3.899-5.944-7.469-5.944H94.281
	c-3.57,0-6.668,2.465-7.469,5.944l-13.36,58c-0.619,2.692,0.256,5.509,2.295,7.374l24.885,22.776c1.464,1.34,3.319,2.01,5.175,2.01
	c1.855,0,3.711-0.67,5.175-2.01l24.884-22.776C137.901,333.01,138.776,330.193,138.157,327.501z"/>
<g>
	<path style="fill:#D3333C;" d="M138.157,327.501l-12.772-55.441h-19.581h-3.728l13.084,56.796l-22.995,21.048l8.465,7.747
		c1.464,1.34,3.319,2.011,5.175,2.011c1.855,0,3.711-0.67,5.175-2.011l24.884-22.776
		C137.901,333.01,138.776,330.193,138.157,327.501z"/>
	<path style="fill:#D3333C;" d="M125.542,272.06l15.045-29.028c-10.919-3.911-22.6-6.136-34.68-6.301
		c-0.068-0.002-0.137-0.002-0.205,0c-11.962,0.163-23.536,2.347-34.363,6.187l14.767,29.141h39.436V272.06z"/>
</g>
<path style="fill:#AF273B;" d="M118.996,237.729l-16.919,34.331h3.727h19.738l15.045-29.028
	C133.666,240.554,126.438,238.757,118.996,237.729z"/>
<g>
	<path style="fill:#F2464F;" d="M359.995,70.641H234.116c-4.146,0-7.505,3.359-7.505,7.505v73.932c0,4.146,3.359,7.505,7.505,7.505
		h125.879c4.146,0,7.505-3.359,7.505-7.505V78.146C367.501,74,364.141,70.641,359.995,70.641z"/>
	<path style="fill:#F2464F;" d="M455.841,211.528H234.116c-4.146,0-7.505,3.359-7.505,7.505v73.932c0,4.146,3.359,7.505,7.505,7.505
		H455.84c4.146,0,7.505-3.359,7.505-7.505v-73.932C463.347,214.887,459.986,211.528,455.841,211.528z"/>
	<path style="fill:#F2464F;" d="M409.715,352.415H234.116c-4.146,0-7.505,3.359-7.505,7.505v73.933c0,4.145,3.359,7.505,7.505,7.505
		h175.599c4.146,0,7.505-3.36,7.505-7.505V359.92C417.221,355.774,413.86,352.415,409.715,352.415z"/>
</g>
<g>
	<path style="fill:#D3333C;" d="M226.611,132.065v20.014c0,4.146,3.359,7.505,7.505,7.505h125.879c4.146,0,7.505-3.359,7.505-7.505
		v-20.014H226.611z"/>
	<path style="fill:#D3333C;" d="M226.611,272.952v20.014c0,4.146,3.359,7.505,7.505,7.505H455.84c4.146,0,7.505-3.359,7.505-7.505
		v-20.014H226.611z"/>
	<path style="fill:#D3333C;" d="M226.611,413.838v20.015c0,4.145,3.359,7.505,7.505,7.505h175.599c4.146,0,7.505-3.36,7.505-7.505
		v-20.015H226.611z"/>
</g>
<path style="fill:#FFC89F;" d="M105.804,102.43c-30.042,0-54.483,24.441-54.483,54.483v40.427c0,30.042,24.441,54.483,54.483,54.483
	s54.483-24.441,54.483-54.483v-40.427C160.288,126.871,135.846,102.43,105.804,102.43z"/>
<path style="fill:#F7B081;" d="M105.804,102.43c-4.761,0-9.38,0.618-13.785,1.771c23.389,6.121,40.698,27.431,40.698,52.712v40.427
	c0,25.281-17.309,46.591-40.698,52.712c4.405,1.153,9.023,1.771,13.785,1.771c30.042,0,54.483-24.441,54.483-54.483v-40.427
	C160.288,126.871,135.846,102.43,105.804,102.43z"/>
<path d="M160.288,177.121v-20.207c0-30.041-24.441-54.483-54.483-54.483s-54.483,24.441-54.483,54.483v20.212h7.505
	c41.061,0,56.019-27.726,56.019-27.726s10.456,27.592,37.937,27.72L160.288,177.121L160.288,177.121z"/>
<g>
</g>
<g>
</g>
<g>
</g>
<g>
</g>
<g>
</g>
<g>
</g>
<g>
</g>
<g>
</g>
<g>
</g>
<g>
</g>
<g>
</g>
<g>
</g>
<g>
</g>
<g>
</g>
<g>
</g>
</svg>
