<?xml version="1.0" encoding="iso-8859-1"?>
<!-- Generator: Adobe Illustrator 19.0.0, SVG Export Plug-In . SVG Version: 6.00 Build 0)  -->
<svg version="1.1" id="Layer_1" xmlns="http://www.w3.org/2000/svg" xmlns:xlink="http://www.w3.org/1999/xlink" x="0px" y="0px"
	 viewBox="0 0 512.001 512.001" style="enable-background:new 0 0 512.001 512.001;" xml:space="preserve">
<path style="fill:#68B9D8;" d="M255.916,104.406c-0.068-0.001-0.137-0.001-0.205,0c-45.412,0.621-83.776,37.817-83.776,81.226
	v24.481c0,4.142,3.362,7.501,7.512,7.501H332.18c4.149,0,7.513-3.358,7.513-7.501v-24.481
	C339.693,142.224,301.327,105.028,255.916,104.406z"/>
<path style="fill:#3695B2;" d="M255.916,104.406c-0.068-0.001-0.137-0.001-0.205,0c-4.556,0.062-9.037,0.509-13.419,1.277
	c39.299,6.887,70.357,40.896,70.357,79.949v24.481c0,4.142-3.363,7.501-7.513,7.501h27.045c4.149,0,7.513-3.358,7.513-7.501v-24.481
	C339.693,142.224,301.327,105.028,255.916,104.406z"/>
<path style="fill:#F2464F;" d="M282.491,175.872l-10.345-40.718c-0.86-3.385-3.912-5.757-7.411-5.757h-17.845
	c-3.498,0-6.551,2.37-7.411,5.757l-10.346,40.718c-0.693,2.725,0.171,5.611,2.249,7.509l19.268,17.608
	c1.46,1.335,3.311,2.002,5.163,2.002s3.701-0.667,5.162-2.003l19.267-17.608C282.32,181.482,283.184,178.597,282.491,175.872z"/>
<path style="fill:#546F7A;" d="M509.878,358.106l-127.84-152.8c-1.427-1.706-3.539-2.692-5.766-2.692H135.354
	c-2.226,0-4.338,0.986-5.766,2.692L1.747,358.106c-1.87,2.234-2.275,5.349-1.04,7.986c1.235,2.637,3.888,4.323,6.805,4.323h209.292
	c2.144,0,4.186-0.915,5.612-2.514s2.098-3.73,1.849-5.857c-0.151-1.29-0.224-2.497-0.224-3.689v-33.998
	c0-17.649,14.381-32.007,32.057-32.007c17.677,0,32.056,14.358,32.056,32.007v33.998c0,1.192-0.073,2.398-0.224,3.689
	c-0.248,2.126,0.424,4.257,1.849,5.857s3.467,2.514,5.612,2.514h208.72c2.917,0,5.57-1.686,6.805-4.323
	C512.153,363.453,511.748,360.34,509.878,358.106z"/>
<path style="fill:#465A65;" d="M504.487,355.413H295.393c-3.812,0-7.021,2.852-7.463,6.634
	c-1.83,15.709-15.147,27.872-30.978,28.291c-0.289,0.008-0.573,0.036-0.853,0.075c-0.28-0.039-0.564-0.067-0.853-0.075
	c-15.832-0.419-29.149-12.582-30.979-28.291c-0.441-3.781-3.649-6.634-7.463-6.634H7.513c-4.149,0-7.512,3.358-7.512,7.501v45.266
	c0,4.142,3.363,7.501,7.512,7.501h209.372c1.251,0,2.482-0.312,3.582-0.908c10.813-5.856,22.839-9.12,34.78-9.437
	c0.289-0.008,0.572-0.036,0.852-0.075c0.28,0.039,0.563,0.067,0.852,0.075c11.941,0.318,23.967,3.581,34.779,9.437
	c1.099,0.596,2.331,0.908,3.582,0.908h209.175c4.149,0,7.513-3.358,7.513-7.501v-45.266
	C512,358.772,508.637,355.413,504.487,355.413z"/>
<path style="fill:#68B9D8;" d="M256.202,390.296c-0.069-0.001-0.137-0.001-0.206,0c-48.896,0.668-90.206,40.707-90.206,87.433
	v26.542c0,4.142,3.363,7.501,7.513,7.501h165.591c4.149,0,7.513-3.358,7.513-7.501v-26.542
	C346.407,431.003,305.098,390.964,256.202,390.296z"/>
<path style="fill:#3695B2;" d="M256.202,390.296c-0.068-0.001-0.137-0.001-0.205,0c-4.493,0.061-8.923,0.458-13.261,1.159
	c42.877,6.928,76.944,43.842,76.944,86.274v26.542c0,4.142-3.363,7.501-7.513,7.501h26.729c4.149,0,7.513-3.358,7.513-7.501v-26.542
	C346.407,431.003,305.098,390.964,256.202,390.296z"/>
<path style="fill:#EFE7E4;" d="M354.654,298.493l-43.68-69.206c-1.375-2.18-3.774-3.501-6.355-3.501H207.01
	c-2.58,0-4.979,1.322-6.355,3.501l-43.682,69.206c-1.459,2.311-1.544,5.231-0.222,7.623c1.321,2.392,3.841,3.876,6.578,3.876h59.865
	c2.507,0,4.848-1.249,6.244-3.329c6.007-8.962,15.975-14.312,26.663-14.312c10.689,0,20.656,5.351,26.662,14.312
	c1.394,2.08,3.736,3.329,6.244,3.329h59.294c2.736,0,5.256-1.485,6.578-3.876C356.198,303.724,356.113,300.804,354.654,298.493z"/>
<path style="fill:#D8D1D0;" d="M333,309.993h15.299c2.736,0,5.256-1.485,6.578-3.876c1.322-2.392,1.237-5.312-0.222-7.623
	l-43.68-69.206c-1.375-2.18-3.774-3.501-6.355-3.501h-24.767L333,309.993z"/>
<path style="fill:#D3333C;" d="M281.298,115.691c0.288-0.734,1.168-3.214,2.171-6.257c-8.675-3.113-17.953-4.895-27.554-5.026
	c-0.068-0.001-0.137-0.001-0.205,0c-9.644,0.132-18.965,1.928-27.674,5.069c1.07,3.015,2.003,5.479,2.291,6.215l8.582,21.905h33.807
	L281.298,115.691z"/>
<path style="fill:#AF273B;" d="M269.166,105.66c-4.797,13.426-11.42,31.858-11.42,31.858l0.02,0.078h14.952l8.581-21.905
	c0.288-0.734,1.168-3.214,2.171-6.257C278.859,107.779,274.074,106.514,269.166,105.66z"/>
<path style="fill:#FFC89F;" d="M256.266,0.23h-0.907c-24.016,0-43.554,19.509-43.554,43.488v32.262
	c0,23.98,19.539,43.488,43.554,43.488h0.907c24.016,0,43.555-19.509,43.555-43.488V43.719C299.822,19.739,280.283,0.23,256.266,0.23
	z"/>
<path style="fill:#F7B081;" d="M256.266,0.23h-0.907c-4.675,0-9.177,0.748-13.402,2.116c17.477,5.659,30.153,22.061,30.153,41.373
	v32.262c0,19.312-12.675,35.715-30.153,41.373c4.225,1.368,8.727,2.116,13.402,2.116h0.907c24.016,0,43.555-19.509,43.555-43.488
	V43.719C299.822,19.739,280.283,0.23,256.266,0.23z"/>
<path d="M299.822,59.527V43.719c0-23.98-19.539-43.488-43.555-43.488h-0.907c-24.015,0-43.554,19.509-43.554,43.488v15.813h7.959
	c31.704,0,43.254-21.375,43.254-21.375s8.074,21.271,29.292,21.37H299.822z"/>
<path style="fill:#353535;" d="M256.59,277.349h-0.983c-25.69,0-46.59,20.868-46.59,46.519v34.978
	c0,25.651,20.9,46.519,46.59,46.519h0.983c25.69,0,46.59-20.868,46.59-46.519v-34.978
	C303.179,298.217,282.279,277.349,256.59,277.349z"/>
<path style="fill:#232323;" d="M256.59,277.349h-0.983c-4.705,0-9.248,0.706-13.532,2.008c19.11,5.804,33.057,23.558,33.057,44.51
	v34.978c0,20.952-13.948,38.707-33.057,44.51c4.285,1.301,8.827,2.008,13.532,2.008h0.983c25.69,0,46.59-20.868,46.59-46.519
	v-34.978C303.179,298.217,282.279,277.349,256.59,277.349z"/>
<path style="fill:#D3333C;" d="M272.747,137.518l-0.03,0.078h-14.952l9.725,38.276c0.693,2.726-0.171,5.611-2.249,7.509
	l-16.929,15.471l2.339,2.137c1.46,1.335,3.311,2.002,5.163,2.002c1.851,0,3.701-0.667,5.162-2.003l19.268-17.608
	c2.078-1.898,2.942-4.783,2.249-7.509L272.747,137.518z"/>
<g>
</g>
<g>
</g>
<g>
</g>
<g>
</g>
<g>
</g>
<g>
</g>
<g>
</g>
<g>
</g>
<g>
</g>
<g>
</g>
<g>
</g>
<g>
</g>
<g>
</g>
<g>
</g>
<g>
</g>
</svg>
